<svg id="Layer_1" data-name="Layer 1" xmlns="http://www.w3.org/2000/svg" viewBox="0 0 1103.81 395.89"><defs><style>.cls-1{fill:#ff3939;}</style></defs><title>Artboard 5</title><path class="cls-1" d="M115.53,265.33V248l10.28-1.49,45.75-125.11h29.55l45.46,125.11L256.85,248v17.29h-49V248l10-1.78-6.32-19.77h-50.6l-6.33,19.77,10,1.78v17.29Zm52.18-60.08h37l-16.8-49.32-1.39-4.35h-.59l-1.48,4.65Z"/><path class="cls-1" d="M266.43,265.33V248l15.32-3V141.8l-15.32-3V121.44H311l62.66,99.81.59-.09V141.8l-18.38-3V121.44h59.59v17.39l-15.41,3V265.33H372.18l-64-98.82-.59.09v78.47L326,248v17.29Z"/><path class="cls-1" d="M425,265.33V248l15.32-3V141.8l-15.32-3V121.44h59.49v17.39l-15.31,3V245.07l15.31,3v17.29Z"/><path class="cls-1" d="M495.51,265.33V248l15.32-3V141.8l-15.32-3V121.44h58l39.24,100.31h.59L631.3,121.44h58.11v17.39l-15.42,3V245.07l15.42,3v17.29H629.82V248l16.11-3V217.5l.49-64.93-.59-.1-43,110.88H581l-44-110-.59.1,1.68,61.08v30.53l17,3v17.29Z"/><path class="cls-1" d="M770.84,267.41q-17.1,0-30.09-5.93a46.06,46.06,0,0,1-20.21-17.2q-7.21-11.26-7.22-27.37V141.8l-15.31-3V121.44H757.6v17.39l-15.42,3v75.11q0,9.48,3.46,15.81a22,22,0,0,0,9.88,9.44,34.89,34.89,0,0,0,15.32,3.11,35.76,35.76,0,0,0,15.57-3.11,21.91,21.91,0,0,0,9.93-9.44q3.45-6.33,3.46-15.81V141.8l-15.32-3V121.44h59.59v17.39l-15.42,3v75.11q0,16.11-7.26,27.42a46,46,0,0,1-20.26,17.2Q788.14,267.41,770.84,267.41Z"/><path class="cls-1" d="M912.06,267.41a109.94,109.94,0,0,1-28.95-3.56,83.58,83.58,0,0,1-25.7-12.35V216.71h22.34l3.06,20.46a33.69,33.69,0,0,0,12.25,6.07,59.36,59.36,0,0,0,17,2.33,35.36,35.36,0,0,0,13.2-2.18,17.88,17.88,0,0,0,8.2-6.18,15.92,15.92,0,0,0,2.81-9.43,16.76,16.76,0,0,0-2.52-9.14,23,23,0,0,0-8.3-7.32A80,80,0,0,0,909.79,205q-17.1-5-28.31-11t-16.8-14.33q-5.59-8.35-5.59-20.11a34.29,34.29,0,0,1,6.47-20.61A43.62,43.62,0,0,1,883.5,124.8Q895,119.67,910,119.46q16.6-.19,29.4,4A69.13,69.13,0,0,1,961.47,135v32.41H939.83l-3.75-19.76A38.6,38.6,0,0,0,926,143.48a53.8,53.8,0,0,0-14.48-1.78,33.17,33.17,0,0,0-12.21,2.08,19.12,19.12,0,0,0-8.35,6,15.2,15.2,0,0,0-3.06,9.59,13.8,13.8,0,0,0,2.67,8.45q2.67,3.61,8.94,6.82a127.28,127.28,0,0,0,17.35,6.87q23.81,6.61,36.12,17.49t12.3,28.56a34.66,34.66,0,0,1-6.62,21.2Q952,257.72,940,262.56T912.06,267.41Z"/></svg>